<mxfile host="app.diagrams.net" modified="2022-04-17T10:20:24.953Z" agent="5.0 (X11; Linux x86_64) AppleWebKit/537.36 (KHTML, like Gecko) Chrome/99.0.4844.82 Safari/537.36" etag="DG3e5cXG0xxqfTpIpSBC" version="17.4.5" type="github">
  <diagram id="7IOKUUXdPSaCE5saCkj7" name="第 1 页">
    <mxGraphModel dx="1036" dy="557" grid="0" gridSize="10" guides="1" tooltips="1" connect="1" arrows="1" fold="1" page="1" pageScale="1" pageWidth="1169" pageHeight="827" math="0" shadow="0">
      <root>
        <mxCell id="0" />
        <mxCell id="1" parent="0" />
        <mxCell id="Ryd-fn87TYvUrrKp_oBZ-23" value="买家/卖家" style="swimlane;whiteSpace=wrap" vertex="1" parent="1">
          <mxGeometry x="164.5" y="127" width="280" height="472" as="geometry" />
        </mxCell>
        <mxCell id="Ryd-fn87TYvUrrKp_oBZ-24" style="edgeStyle=orthogonalEdgeStyle;rounded=0;orthogonalLoop=1;jettySize=auto;html=1;entryX=0.5;entryY=0;entryDx=0;entryDy=0;" edge="1" parent="Ryd-fn87TYvUrrKp_oBZ-23" source="Ryd-fn87TYvUrrKp_oBZ-25" target="Ryd-fn87TYvUrrKp_oBZ-26">
          <mxGeometry relative="1" as="geometry" />
        </mxCell>
        <mxCell id="Ryd-fn87TYvUrrKp_oBZ-25" value="" style="ellipse;shape=startState;fillColor=#000000;strokeColor=#ff0000;" vertex="1" parent="Ryd-fn87TYvUrrKp_oBZ-23">
          <mxGeometry x="125" y="45" width="30" height="30" as="geometry" />
        </mxCell>
        <mxCell id="Ryd-fn87TYvUrrKp_oBZ-26" value="进行线下提货" style="rounded=1;whiteSpace=wrap;html=1;arcSize=50;" vertex="1" parent="Ryd-fn87TYvUrrKp_oBZ-23">
          <mxGeometry x="93.06" y="126" width="93.87" height="30" as="geometry" />
        </mxCell>
        <mxCell id="Ryd-fn87TYvUrrKp_oBZ-58" style="edgeStyle=none;rounded=0;orthogonalLoop=1;jettySize=auto;html=1;entryX=0.5;entryY=0;entryDx=0;entryDy=0;" edge="1" parent="Ryd-fn87TYvUrrKp_oBZ-23" source="Ryd-fn87TYvUrrKp_oBZ-30" target="Ryd-fn87TYvUrrKp_oBZ-57">
          <mxGeometry relative="1" as="geometry" />
        </mxCell>
        <mxCell id="Ryd-fn87TYvUrrKp_oBZ-30" value="成交" style="rounded=1;whiteSpace=wrap;html=1;arcSize=50;" vertex="1" parent="Ryd-fn87TYvUrrKp_oBZ-23">
          <mxGeometry x="116.53999999999999" y="223" width="46.93" height="30" as="geometry" />
        </mxCell>
        <mxCell id="Ryd-fn87TYvUrrKp_oBZ-60" style="edgeStyle=none;rounded=0;orthogonalLoop=1;jettySize=auto;html=1;entryX=1;entryY=0.5;entryDx=0;entryDy=0;" edge="1" parent="Ryd-fn87TYvUrrKp_oBZ-23" source="Ryd-fn87TYvUrrKp_oBZ-54" target="Ryd-fn87TYvUrrKp_oBZ-57">
          <mxGeometry relative="1" as="geometry" />
        </mxCell>
        <mxCell id="Ryd-fn87TYvUrrKp_oBZ-54" value="成交失败" style="rounded=1;whiteSpace=wrap;html=1;arcSize=50;" vertex="1" parent="Ryd-fn87TYvUrrKp_oBZ-23">
          <mxGeometry x="177.5" y="319" width="68.93" height="30" as="geometry" />
        </mxCell>
        <mxCell id="Ryd-fn87TYvUrrKp_oBZ-57" value="" style="ellipse;html=1;shape=endState;fillColor=#000000;strokeColor=#ff0000;" vertex="1" parent="Ryd-fn87TYvUrrKp_oBZ-23">
          <mxGeometry x="125" y="408" width="30" height="30" as="geometry" />
        </mxCell>
        <mxCell id="Ryd-fn87TYvUrrKp_oBZ-27" value="线下交易" style="swimlane;whiteSpace=wrap" vertex="1" parent="1">
          <mxGeometry x="444.5" y="127" width="300" height="472" as="geometry" />
        </mxCell>
        <mxCell id="Ryd-fn87TYvUrrKp_oBZ-50" style="edgeStyle=orthogonalEdgeStyle;rounded=0;orthogonalLoop=1;jettySize=auto;html=1;entryX=0.5;entryY=0;entryDx=0;entryDy=0;" edge="1" parent="Ryd-fn87TYvUrrKp_oBZ-27" source="Ryd-fn87TYvUrrKp_oBZ-29" target="Ryd-fn87TYvUrrKp_oBZ-49">
          <mxGeometry relative="1" as="geometry" />
        </mxCell>
        <mxCell id="Ryd-fn87TYvUrrKp_oBZ-29" value="线下对商品进行验货" style="rounded=1;whiteSpace=wrap;html=1;arcSize=50;" vertex="1" parent="Ryd-fn87TYvUrrKp_oBZ-27">
          <mxGeometry x="85.53" y="126" width="128.93" height="30" as="geometry" />
        </mxCell>
        <mxCell id="Ryd-fn87TYvUrrKp_oBZ-49" value="" style="rhombus;whiteSpace=wrap;html=1;" vertex="1" parent="Ryd-fn87TYvUrrKp_oBZ-27">
          <mxGeometry x="127.25" y="217" width="45.5" height="42" as="geometry" />
        </mxCell>
        <mxCell id="Ryd-fn87TYvUrrKp_oBZ-52" value="有无异议" style="text;html=1;align=center;verticalAlign=middle;resizable=0;points=[];autosize=1;strokeColor=none;fillColor=none;" vertex="1" parent="Ryd-fn87TYvUrrKp_oBZ-27">
          <mxGeometry x="162.5" y="199" width="58" height="18" as="geometry" />
        </mxCell>
        <mxCell id="Ryd-fn87TYvUrrKp_oBZ-53" value="无" style="text;html=1;align=center;verticalAlign=middle;resizable=0;points=[];autosize=1;strokeColor=none;fillColor=none;" vertex="1" parent="Ryd-fn87TYvUrrKp_oBZ-27">
          <mxGeometry x="95.5" y="217" width="22" height="18" as="geometry" />
        </mxCell>
        <mxCell id="Ryd-fn87TYvUrrKp_oBZ-56" value="有" style="text;html=1;align=center;verticalAlign=middle;resizable=0;points=[];autosize=1;strokeColor=none;fillColor=none;" vertex="1" parent="Ryd-fn87TYvUrrKp_oBZ-27">
          <mxGeometry x="131.5" y="265" width="22" height="18" as="geometry" />
        </mxCell>
        <mxCell id="Ryd-fn87TYvUrrKp_oBZ-47" style="edgeStyle=orthogonalEdgeStyle;rounded=0;orthogonalLoop=1;jettySize=auto;html=1;entryX=0;entryY=0.5;entryDx=0;entryDy=0;" edge="1" parent="1" source="Ryd-fn87TYvUrrKp_oBZ-26" target="Ryd-fn87TYvUrrKp_oBZ-29">
          <mxGeometry relative="1" as="geometry" />
        </mxCell>
        <mxCell id="Ryd-fn87TYvUrrKp_oBZ-51" style="edgeStyle=orthogonalEdgeStyle;rounded=0;orthogonalLoop=1;jettySize=auto;html=1;entryX=1;entryY=0.5;entryDx=0;entryDy=0;" edge="1" parent="1" source="Ryd-fn87TYvUrrKp_oBZ-49" target="Ryd-fn87TYvUrrKp_oBZ-30">
          <mxGeometry relative="1" as="geometry" />
        </mxCell>
        <mxCell id="Ryd-fn87TYvUrrKp_oBZ-55" style="rounded=0;orthogonalLoop=1;jettySize=auto;html=1;entryX=1;entryY=0.5;entryDx=0;entryDy=0;exitX=0.5;exitY=1;exitDx=0;exitDy=0;" edge="1" parent="1" source="Ryd-fn87TYvUrrKp_oBZ-49" target="Ryd-fn87TYvUrrKp_oBZ-54">
          <mxGeometry relative="1" as="geometry" />
        </mxCell>
      </root>
    </mxGraphModel>
  </diagram>
</mxfile>
